<svg width="24" height="24" viewBox="0 0 24 24" fill="none" xmlns="http://www.w3.org/2000/svg">
<circle cx="12" cy="12" r="11.25" fill="#414141" stroke="#ee6723" stroke-width="1.5"/>
<path d="M10.3544 6C10.0534 6 9.81008 6.24436 9.81008 6.54545V8.18181C9.81008 8.48344 10.0534 8.72726 10.3544 8.72726C10.6554 8.72726 10.8987 8.48344 10.8987 8.18181V6.54545C10.8987 6.24436 10.6554 6 10.3544 6Z" fill="#ee6723"/>
<path d="M8.01714 7.25072C7.80432 7.03746 7.46032 7.03746 7.24751 7.25072C7.03469 7.46345 7.03469 7.80926 7.24748 8.02198L8.88147 9.65889C8.98761 9.76581 9.12697 9.81871 9.2663 9.81871C9.40566 9.81871 9.54499 9.76579 9.65113 9.65889C9.86394 9.44616 9.86394 9.10035 9.65113 8.88762L8.01714 7.25072Z" fill="#ee6723"/>
<path d="M8.17718 9.81818H6.54429C6.24328 9.81818 5.99997 10.0625 6 10.3636C6 10.6653 6.2433 10.9091 6.54429 10.9091H8.17718C8.47817 10.9091 8.72147 10.6653 8.72147 10.3636C8.72147 10.0625 8.47817 9.81818 8.17718 9.81818Z" fill="#ee6723"/>
<path d="M10.6439 17.2015L12.1837 15.6584C12.3966 15.4456 12.3966 15.1004 12.1838 14.8871C11.9715 14.6743 11.627 14.6743 11.4141 14.8871L9.87432 16.4302C9.25763 17.0482 8.18211 17.0482 7.56541 16.4302C6.92858 15.792 6.92858 14.754 7.56541 14.1158L9.87432 11.8015C10.5112 11.1644 11.5469 11.1633 12.1838 11.8015C12.3966 12.0147 12.7411 12.0147 12.9534 11.8015C13.1662 11.5882 13.1662 11.2429 12.9534 11.0302C11.892 9.96655 10.165 9.96709 9.10467 11.0302L6.79576 13.3445C5.73491 14.4076 5.73491 16.1378 6.79576 17.2015C7.30956 17.7164 7.99267 18 8.71984 18C9.44702 18 10.1301 17.7164 10.6439 17.2015Z" fill="#ee6723"/>
<path d="M13.6202 18C13.9211 18 14.1645 17.7562 14.1645 17.4545V15.8182C14.1645 15.5171 13.9211 15.2727 13.6202 15.2727C13.3192 15.2727 13.0759 15.5171 13.0759 15.8182V17.4545C13.0759 17.7562 13.3192 18 13.6202 18Z" fill="#ee6723"/>
<path d="M16.3411 16.9085C16.4805 16.9085 16.6198 16.8556 16.7259 16.7487C16.9387 16.536 16.9387 16.1902 16.7259 15.9775L15.0935 14.3422C14.8807 14.1289 14.5367 14.1289 14.3239 14.3422C14.1111 14.5549 14.1111 14.9007 14.3239 15.1135L15.9563 16.7487C16.0624 16.8556 16.2018 16.9085 16.3411 16.9085Z" fill="#ee6723"/>
<path d="M15.7973 14.1818H17.4302C17.7313 14.1818 17.9746 13.938 17.9745 13.6364C17.9745 13.3353 17.7312 13.0909 17.4302 13.0909H15.7973C15.4964 13.0909 15.2531 13.3353 15.2531 13.6364C15.2531 13.938 15.4964 14.1818 15.7973 14.1818Z" fill="#ee6723"/>
<path d="M14.4883 13.3778L17.2044 10.656C18.2652 9.59236 18.2652 7.86216 17.2044 6.79908C16.6906 6.28363 16.0075 6 15.2803 6C14.5531 6 13.87 6.28363 13.3562 6.79908L11.5089 8.64981C11.2966 8.86308 11.2966 9.20835 11.5089 9.42108C11.7217 9.63434 12.0662 9.63434 12.2785 9.42108L14.1258 7.57035C14.7425 6.95234 15.818 6.95234 16.4347 7.57035C17.0716 8.20853 17.0716 9.24652 16.4347 9.88471L13.7187 12.606C13.1026 13.224 12.0265 13.224 11.4098 12.606C11.1975 12.3933 10.853 12.3933 10.6402 12.606C10.4279 12.8193 10.4279 13.1645 10.6402 13.3778C11.1545 13.8927 11.8371 14.1764 12.5642 14.1764C13.2914 14.1764 13.9745 13.8927 14.4883 13.3778Z" fill="#ee6723"/>
</svg>
