<svg width="32" height="32" viewBox="0 0 32 32" fill="none" xmlns="http://www.w3.org/2000/svg">
<circle cx="16" cy="16" r="16" fill="#F7D056"/>
<g clip-path="url(#clip0_30954_131113)">
<circle cx="16.0002" cy="16.0026" r="6.66667" stroke="black" stroke-width="1.5" stroke-linecap="round" stroke-linejoin="round"/>
<ellipse cx="16.0003" cy="18.2943" rx="0.833333" ry="0.833333" fill="black" stroke="black" stroke-width="1.5" stroke-linecap="round" stroke-linejoin="round"/>
<path d="M16 13.0859V17.2526" stroke="black" stroke-width="1.5" stroke-linecap="round"/>
<path d="M15.25 10.5859C15.25 11.0002 15.5858 11.3359 16 11.3359C16.4142 11.3359 16.75 11.0002 16.75 10.5859H15.25ZM15.25 9.33594V10.5859H16.75V9.33594H15.25Z" fill="black"/>
<path d="M11.3536 12.8361C11.6464 13.129 12.1213 13.129 12.4142 12.8361C12.7071 12.5432 12.7071 12.0683 12.4142 11.7754L11.3536 12.8361ZM10.4697 11.9522L11.3536 12.8361L12.4142 11.7754L11.5303 10.8915L10.4697 11.9522Z" fill="black"/>
<path d="M19.6351 11.7754C19.3422 12.0683 19.3422 12.5432 19.6351 12.8361C19.928 13.129 20.4029 13.129 20.6958 12.8361L19.6351 11.7754ZM20.519 10.8915L19.6351 11.7754L20.6958 12.8361L21.5796 11.9522L20.519 10.8915Z" fill="black"/>
<path d="M21.417 15.25C21.0028 15.25 20.667 15.5858 20.667 16C20.667 16.4142 21.0028 16.75 21.417 16.75L21.417 15.25ZM22.667 15.25L21.417 15.25L21.417 16.75L22.667 16.75L22.667 15.25Z" fill="black"/>
<path d="M10.5835 16.75C10.9977 16.75 11.3335 16.4142 11.3335 16C11.3335 15.5858 10.9977 15.25 10.5835 15.25L10.5835 16.75ZM9.3335 16.75L10.5835 16.75L10.5835 15.25L9.3335 15.25L9.3335 16.75Z" fill="black"/>
</g>
<defs>
<clipPath id="clip0_30954_131113">
<rect width="16" height="16" fill="white" transform="translate(8 8)"/>
</clipPath>
</defs>
</svg>
