<?xml version="1.0" encoding="UTF-8"?>
<svg width="17px" height="24px" viewBox="0 0 17 24" version="1.1" xmlns="http://www.w3.org/2000/svg" xmlns:xlink="http://www.w3.org/1999/xlink">
    <!-- Generator: Sketch 58 (84663) - https://sketch.com -->
    <title>cylinder</title>
    <desc>Created with Sketch.</desc>
    <g id="Main-segment-2---v1" stroke="none" stroke-width="1" fill="none" fill-rule="evenodd">
        <g id="Artboard" transform="translate(-250.000000, -378.000000)" fill="#979797" fill-rule="nonzero">
            <path d="M258.928571,378 C263.346849,378 266.928571,379.790861 266.928571,382 C266.928571,382.166501 266.908225,382.330626 266.868709,382.491787 L266.867495,398.521137 L266.625006,398.743999 C264.518504,400.679998 261.940434,401.651883 258.928571,401.651883 C255.91927,401.651883 253.318756,400.681877 251.162593,398.750434 L251.162593,398.750434 L250.913013,398.526865 L250.913013,382 L250.928571,382 C250.928571,379.790861 254.510293,378 258.928571,378 Z M252.411218,384.320246 L252.413013,397.849928 C254.239,399.38706 256.400493,400.151883 258.928571,400.151883 C261.454348,400.151883 263.58965,399.388689 265.367495,397.855512 L265.367495,397.855512 L265.367454,384.374294 C263.910466,385.360458 261.568892,386 258.928571,386 C256.24032,386 253.861759,385.337027 252.411218,384.320246 Z M258.928571,379.5 C255.232429,379.5 252.428571,380.901929 252.428571,382 C252.428571,383.098071 255.232429,384.5 258.928571,384.5 C262.308056,384.5 264.941595,383.327995 265.368034,382.287842 L265.367495,382 L265.428571,382 C265.428571,380.901929 262.624713,379.5 258.928571,379.5 Z" id="cylinder"></path>
        </g>
    </g>
</svg>