<svg width="24" height="24" viewBox="0 0 24 24" fill="none" xmlns="http://www.w3.org/2000/svg">
<path d="M12 23.25C18.2132 23.25 23.25 18.2132 23.25 12C23.25 5.7868 18.2132 0.75 12 0.75C5.7868 0.75 0.75 5.7868 0.75 12C0.75 18.2132 5.7868 23.25 12 23.25Z" fill="#414141" stroke="#CC0033" stroke-width="1.5"/>
<path d="M12.8395 10.3583L15.0953 8.17176C15.8918 7.39978 17.179 7.39978 17.9711 8.17176C18.7675 8.94374 18.7675 10.1914 17.9711 10.9592L15.7152 13.1458C14.9188 13.9178 13.6316 13.9178 12.8395 13.1458" stroke="#CC0033" stroke-miterlimit="10" stroke-linecap="round"/>
<path d="M11.1605 13.8508L8.90467 16.0374C8.10824 16.8094 6.82103 16.8094 6.0289 16.0374C5.23247 15.2654 5.23247 14.0178 6.0289 13.2499L8.28475 11.0634C9.08118 10.2914 10.3684 10.2914 11.1605 11.0634" stroke="#CC0033" stroke-miterlimit="10" stroke-linecap="round"/>
<path d="M12 8.38428H10.73" stroke="#CC0033" stroke-miterlimit="10" stroke-linecap="round"/>
<path d="M13.791 6.64848V5.41748" stroke="#CC0033" stroke-miterlimit="10" stroke-linecap="round"/>
<path d="M12.6028 7.18241L11.703 6.31445" stroke="#CC0033" stroke-miterlimit="10" stroke-linecap="round"/>
<path d="M12.5209 15.6162H13.7909" stroke="#CC0033" stroke-miterlimit="10" stroke-linecap="round"/>
<path d="M10.73 17.3521V18.583" stroke="#CC0033" stroke-miterlimit="10" stroke-linecap="round"/>
<path d="M11.9182 16.8179L12.818 17.6858" stroke="#CC0033" stroke-miterlimit="10" stroke-linecap="round"/>
</svg>
