<svg width="24" height="24" viewBox="0 0 24 24" fill="none" xmlns="http://www.w3.org/2000/svg">
<path d="M12 23.25C18.2132 23.25 23.25 18.2132 23.25 12C23.25 5.7868 18.2132 0.75 12 0.75C5.7868 0.75 0.75 5.7868 0.75 12C0.75 18.2132 5.7868 23.25 12 23.25Z" fill="#414141" stroke="#FECF33" stroke-width="1.5"/>
<path d="M14.3898 5.84694L12.2524 9.51845L11.5182 10.7846H13.0083H16.1927L12.374 15.4555L12.8693 13.4906L13.1343 12.4404H12.0265H8.5075L12.4175 5.84271H14.3898V5.84694ZM15.8843 5H11.9135L7 13.2916H12.0265L10.5928 19L18 9.93769H13.0083L15.8843 5Z" fill="#FECF33"/>
</svg>
