<svg width="32" height="32" viewBox="0 0 32 32" fill="none" xmlns="http://www.w3.org/2000/svg">
<circle cx="16" cy="16" r="16" fill="#f69833"/>
<g clip-path="url(#clip0_30971_131251)">
<path d="M22 14.6641C22 19.3307 16 23.3307 16 23.3307C16 23.3307 10 19.3307 10 14.6641C10 13.0728 10.6321 11.5466 11.7574 10.4214C12.8826 9.2962 14.4087 8.66406 16 8.66406C17.5913 8.66406 19.1174 9.2962 20.2426 10.4214C21.3679 11.5466 22 13.0728 22 14.6641Z" stroke="black" stroke-width="1.5" stroke-linecap="round" stroke-linejoin="round"/>
<path d="M16 16.6641C17.1046 16.6641 18 15.7686 18 14.6641C18 13.5595 17.1046 12.6641 16 12.6641C14.8954 12.6641 14 13.5595 14 14.6641C14 15.7686 14.8954 16.6641 16 16.6641Z" stroke="black" stroke-width="1.5" stroke-linecap="round" stroke-linejoin="round"/>
</g>
<defs>
<clipPath id="clip0_30971_131251">
<rect width="16" height="16" fill="white" transform="translate(8 8)"/>
</clipPath>
</defs>
</svg>
