<svg width="24" height="24" viewBox="0 0 24 24" fill="none" xmlns="http://www.w3.org/2000/svg">
<path d="M12 23.25C18.2132 23.25 23.25 18.2132 23.25 12C23.25 5.7868 18.2132 0.75 12 0.75C5.7868 0.75 0.75 5.7868 0.75 12C0.75 18.2132 5.7868 23.25 12 23.25Z" fill="#414141" stroke="#EE6723" stroke-width="1.5"/>
<path d="M12 11.0434V8.17383" stroke="#EE6723" stroke-linecap="round"/>
<path d="M13 13C13 13.5523 12.5523 14 12 14C11.4477 14 11 13.5523 11 13C11 12.4477 11.4477 12 12 12C12.5523 12 13 12.4477 13 13Z" fill="#EE6723"/>
<path d="M13.299 5.25L18.4952 14.25C19.0725 15.25 18.3509 16.5 17.1962 16.5H6.80385C5.64915 16.5 4.92746 15.25 5.50481 14.25L10.701 5.25C11.2783 4.25 12.7217 4.25 13.299 5.25Z" stroke="#EE6723"/>
</svg>
