<svg width="48" height="48" viewBox="0 0 48 48" fill="none" xmlns="http://www.w3.org/2000/svg">
<path d="M23.5542 46.1084C36.0105 46.1084 46.1084 36.0105 46.1084 23.5542C46.1084 11.0979 36.0105 1 23.5542 1C11.0979 1 1 11.0979 1 23.5542C1 36.0105 11.0979 46.1084 23.5542 46.1084Z" fill="#414141"/>
<path d="M40.9706 7.02946C36.4376 2.49646 30.4106 0 24 0V2.8125C35.6828 2.8125 45.1874 12.3172 45.1874 24C45.1874 35.6828 35.6828 45.1874 24 45.1874C12.3172 45.1874 2.8125 35.6828 2.8125 24C2.8125 17.4732 5.8321 11.3208 10.9433 7.31446L11.9515 9.09666L15.5099 3.05606L8.49928 2.99372L9.5444 4.84124C3.55172 9.36966 0 16.4648 0 24C0 30.4106 2.49646 36.4376 7.02938 40.9706C11.5625 45.5036 17.5894 48 24 48C30.4106 48 36.4376 45.5036 40.9706 40.9706C45.5036 36.4376 48 30.4106 48 24C48 17.5894 45.5036 11.5625 40.9706 7.02946Z" fill="#01F6A5"/>
<path d="M24 8L18 11.5V18.5L24 22L30 18.5V11.5L24 8ZM28.8904 12.7945L24.5548 15.3236V20.3818L24 20.7054L23.4452 20.3818V15.3236L19.1096 12.7945V12.1472L19.6644 11.8236L24 14.3527L28.3356 11.8236L28.8904 12.1472V12.7945Z" fill="#01F6A5"/>
<!-- <path d="M16.9468 36H14.8301V27.8408L12.3032 28.6245V26.9033L16.7197 25.3213H16.9468V36ZM25.5601 36H23.4434V27.8408L20.9165 28.6245V26.9033L25.333 25.3213H25.5601V36ZM29.3467 30.7559L29.9619 25.3359H35.9385V27.1011H31.6978L31.4341 29.3936C31.937 29.125 32.4717 28.9907 33.0381 28.9907C34.0537 28.9907 34.8496 29.3057 35.4258 29.9355C36.002 30.5654 36.29 31.4468 36.29 32.5796C36.29 33.2681 36.1436 33.8857 35.8506 34.4326C35.5625 34.9746 35.1475 35.397 34.6055 35.6997C34.0635 35.9976 33.4238 36.1465 32.6865 36.1465C32.042 36.1465 31.4438 36.0171 30.8921 35.7583C30.3403 35.4946 29.9033 35.126 29.5811 34.6523C29.2637 34.1787 29.0952 33.6392 29.0757 33.0337H31.1704C31.2144 33.478 31.3682 33.8247 31.6318 34.0737C31.9004 34.3179 32.2495 34.4399 32.6792 34.4399C33.1577 34.4399 33.5264 34.269 33.7852 33.9272C34.0439 33.5806 34.1733 33.0923 34.1733 32.4624C34.1733 31.8569 34.0244 31.3931 33.7266 31.0708C33.4287 30.7485 33.0063 30.5874 32.4595 30.5874C31.9565 30.5874 31.5488 30.7192 31.2363 30.9829L31.0312 31.1733L29.3467 30.7559Z" fill="white"/> -->
</svg>
