<svg width="24" height="24" viewBox="0 0 24 24" fill="none" xmlns="http://www.w3.org/2000/svg">
<path d="M12 23.25C18.2132 23.25 23.25 18.2132 23.25 12C23.25 5.7868 18.2132 0.75 12 0.75C5.7868 0.75 0.75 5.7868 0.75 12C0.75 18.2132 5.7868 23.25 12 23.25Z" fill="#414141" stroke="#FECF33" stroke-width="1.5"/>
<path d="M11.5474 17.1223C10.6533 17.1223 9.92517 16.3942 9.92517 15.5" stroke="#FECF33" stroke-miterlimit="10" stroke-linecap="round"/>
<path d="M11.3473 19C9.49939 19 8.00061 17.5013 8.00061 15.6533" stroke="#FECF33" stroke-miterlimit="10" stroke-linecap="round"/>
<path d="M12.6289 10.267C12.9568 10.7354 13.2804 11.1952 13.5997 11.6508C13.8807 11.5572 14.166 11.4465 14.4598 11.3613C14.8387 11.2548 15.2943 11.1697 15.6903 11.1782C15.7074 11.1782 15.6946 11.1867 15.7074 11.1782C16.2226 11.1271 16.5036 11.2634 16.874 11.4465C17.2913 11.6508 17.6915 11.8935 18.0875 12.1448C18.4495 12.3704 18.5389 12.8345 18.3175 13.1879C18.096 13.5413 17.6447 13.6478 17.27 13.4306C16.9677 13.2561 16.6654 13.09 16.3759 12.8984C16.0735 12.7025 15.7499 12.7281 15.4136 12.7536C14.8175 12.8047 14.2724 12.9878 13.7828 13.3284C13.9318 13.6137 14.0894 13.8947 14.2299 14.1843C14.5492 14.8485 14.7408 15.5553 14.8089 16.2877C14.8558 16.7816 14.86 17.2755 14.8643 17.7694C14.8686 18.1867 14.5918 18.4805 14.1958 18.5188C13.753 18.5657 13.3911 18.3315 13.3059 17.9312C13.2804 17.8163 13.2846 17.6928 13.2889 17.5736C13.3016 16.8838 13.2506 16.2025 13.0547 15.534C12.8375 14.7974 12.4628 14.1545 11.9561 13.5797C11.9263 13.5456 11.8838 13.5158 11.8369 13.4988C11.6325 13.4136 11.4707 13.2774 11.343 13.0985C10.5808 12.0255 9.81442 10.9568 9.05226 9.8838C8.80956 9.53891 8.66904 9.16422 8.73291 8.72991C8.79252 8.36373 8.98839 8.07419 9.29921 7.86981C10.4063 7.1332 11.4707 6.33697 12.3947 5.37042C12.8631 4.88076 13.4592 5.10643 13.6976 5.45984C13.8722 5.71531 13.8765 6.00485 13.6721 6.23478C13.4634 6.47322 13.242 6.70315 13.0078 6.91178C12.4671 7.38441 11.9093 7.83575 11.36 8.2956C11.3345 8.31689 11.3089 8.34244 11.2706 8.37225C11.4111 8.57237 11.5516 8.76823 11.6964 8.96835C12.0967 8.66604 12.4032 8.30412 12.5991 7.85278C12.697 7.63137 12.8205 7.43551 13.0547 7.33757C13.5316 7.1332 14.1362 7.43976 14.183 7.92942C14.1958 8.06993 14.1532 8.23173 14.0979 8.36799C13.7956 9.09609 13.3315 9.70497 12.7183 10.1946C12.6885 10.2159 12.663 10.2415 12.6289 10.267Z" stroke="#FECF33" stroke-miterlimit="10" stroke-linecap="round"/>
<path d="M9.7719 6.38808C9.7719 7.14598 9.14173 7.77615 8.38382 7.77615C7.62591 7.77615 7 7.14598 7 6.38808C7 5.62591 7.62591 5 8.38808 5C9.14598 5 9.7719 5.63017 9.7719 6.38808Z" stroke="#FECF33" stroke-miterlimit="10" stroke-linecap="round"/>
</svg>
