<svg width="32" height="32" viewBox="0 0 32 32" fill="none" xmlns="http://www.w3.org/2000/svg">
<circle cx="16" cy="16" r="15" fill="#01F6A5" stroke="#01F6A5" stroke-width="2"/>
<path d="M20 13.3359C20 12.2751 19.5786 11.2577 18.8284 10.5075C18.0783 9.75736 17.0609 9.33594 16 9.33594C14.9391 9.33594 13.9217 9.75736 13.1716 10.5075C12.4214 11.2577 12 12.2751 12 13.3359C12 18.0026 10 19.3359 10 19.3359H22C22 19.3359 20 18.0026 20 13.3359Z" stroke="black" stroke-width="1.5" stroke-linecap="round" stroke-linejoin="round"/>
<path d="M17.1504 22C17.0332 22.2021 16.865 22.3698 16.6626 22.4864C16.4602 22.6029 16.2307 22.6643 15.9971 22.6643C15.7635 22.6643 15.534 22.6029 15.3316 22.4864C15.1292 22.3698 14.961 22.2021 14.8438 22" stroke="black" stroke-width="1.5" stroke-linecap="round" stroke-linejoin="round"/>
</svg>
