<svg width="24" height="24" viewBox="0 0 24 24" fill="none" xmlns="http://www.w3.org/2000/svg">
<ellipse cx="12" cy="12" rx="11.2771" ry="11.2771" fill="#414141"/>
<path d="M20.4853 3.51473C18.2188 1.24823 15.2053 0 12 0V1.40625C17.8414 1.40625 22.5937 6.15858 22.5937 12C22.5937 17.8414 17.8414 22.5937 12 22.5937C6.15858 22.5937 1.40625 17.8414 1.40625 12C1.40625 8.73661 2.91605 5.66039 5.47167 3.65723L5.97577 4.54833L7.75495 1.52803L4.24964 1.49686L4.7722 2.42062C1.77586 4.68483 0 8.23242 0 12C0 15.2053 1.24823 18.2188 3.51469 20.4853C5.78123 22.7518 8.79469 24 12 24C15.2053 24 18.2188 22.7518 20.4853 20.4853C22.7518 18.2188 24 15.2053 24 12C24 8.79469 22.7518 5.78123 20.4853 3.51473Z" fill="#ee6723"/>
<path d="M12 3.21924L4.39572 7.6096V16.3902L12 20.7806L19.6043 16.3903V7.6096L12 3.21924ZM18.198 9.23335L12.7031 12.4058V18.7508L12 19.1567L11.2969 18.7508V12.4058L5.80197 9.23335V8.42147L6.5051 8.01554L12 11.188L17.4949 8.01554L18.198 8.42147V9.23335Z" fill="#ee6723"/>
</svg>
