<svg width="24" height="24" viewBox="0 0 24 24" fill="none" xmlns="http://www.w3.org/2000/svg">
<path d="M12 23.25C18.2132 23.25 23.25 18.2132 23.25 12C23.25 5.7868 18.2132 0.75 12 0.75C5.7868 0.75 0.75 5.7868 0.75 12C0.75 18.2132 5.7868 23.25 12 23.25Z" fill="#414141" stroke="#CC0033" stroke-width="1.5"/>
<path d="M16.7143 6.85714C16.95 6.85714 17.1429 7.05 17.1429 7.28571V16.7143C17.1429 16.95 16.95 17.1429 16.7143 17.1429H7.28571C7.05 17.1429 6.85714 16.95 6.85714 16.7143V7.28571C6.85714 7.05 7.05 6.85714 7.28571 6.85714H9.86143L9.21857 7.5L8.61 8.10857L9.21429 8.71286L11.3486 10.8471L10.4014 12.7329L8.94429 15.6343L11.6443 13.83L15.2914 11.3914L16.1614 10.8129L15.4243 10.0714L13.4571 8.10429L14.7086 6.85714H16.7143ZM16.7143 6H14.3529L12.2443 8.10857L14.8157 10.68L11.1686 13.1186L12.3943 10.68L9.82286 8.10857L11.9314 6H7.28571C6.57429 6 6 6.57429 6 7.28571V16.7143C6 17.4257 6.57429 18 7.28571 18H16.7143C17.4257 18 18 17.4257 18 16.7143V7.28571C18 6.57429 17.4257 6 16.7143 6Z" fill="#CC0033"/>
</svg>
